<?xml version="1.0" encoding="UTF-8" standalone="no"?>
<!-- Created with Inkscape (http://www.inkscape.org/) -->

<svg
   width="84.608444mm"
   height="84.608452mm"
   viewBox="0 0 84.608444 84.608452"
   version="1.1"
   id="svg5"
   xmlns="http://www.w3.org/2000/svg"
   xmlns:svg="http://www.w3.org/2000/svg">
  <defs
     id="defs2" />
  <g
     id="layer1"
     transform="translate(-85.142382,-120.19928)">
    <path
       style="fill:#000000;stroke-width:0.581795"
       d="M 98.830397,195.03976 Z"
       id="path119" />
    <path
       style="fill:#000000;stroke-width:0.581795"
       d="m 100.39841,195.03976 c 8.51797,7.0812 19.89855,10.61227 30.92883,9.59632 11.03028,-1.01595 21.57441,-6.5664 28.65562,-15.08437 7.0812,-8.51796 10.61226,-19.89855 9.59632,-30.92883 -1.01595,-11.03028 -6.5664,-21.57441 -15.08437,-28.65561 -8.51797,-7.0812 -19.89855,-10.61227 -30.92883,-9.59632 -11.03028,1.01595 -21.57441,6.5664 -28.655615,15.08437 -7.081202,8.51796 -10.612268,19.89855 -9.59632,30.92883 1.015947,11.03028 6.566396,21.57441 15.084365,28.65561 z"
       id="path123" />
    <path
       style="fill:#ffff00;stroke-width:0.868538"
       d="m 98.44222,156.78082 c 2.04982,3.31643 5.45227,5.76861 9.24678,6.66424 3.79451,0.89563 7.93436,0.22369 11.25079,-1.82613 3.31643,-2.04982 5.76861,-5.45227 6.66424,-9.24678 0.89563,-3.79451 0.22369,-7.93436 -1.82613,-11.25079 -2.04982,-3.31643 -5.45227,-5.76861 -9.24678,-6.66424 -3.79451,-0.89563 -7.93436,-0.22369 -11.25079,1.82613 -3.316433,2.04982 -5.768609,5.45227 -6.664241,9.24678 -0.895631,3.79451 -0.223688,7.93436 1.826131,11.25079 z"
       id="path509" />
  </g>
</svg>
